#N canvas 152 0 1128 718 10;
#X obj 187 159 r \$0-connector;
#X obj 537 182 s;
#X obj 523 88 t s s;
#X msg 523 68 symbol \$1-query;
#X obj 523 247 spigot 1;
#X obj 514 149 t b s b;
#X obj 619 193 t f;
#X msg 622 173 0;
#X msg 593 172 1;
#X obj 512 127 symbol \$0-connector;
#N canvas 237 433 918 384 reply 0;
#X obj 123 219 s;
#X obj 123 118 t b b s;
#X obj 123 199 pack 0 0 0;
#X obj 156 178 unpack;
#X obj 123 97 inlet;
#X obj 123 139 canvasindex 2;
#X obj 155 158 parentposition 2;
#X connect 1 0 5 0;
#X connect 1 1 6 0;
#X connect 1 2 0 1;
#X connect 2 0 0 0;
#X connect 3 0 2 1;
#X connect 3 1 2 2;
#X connect 4 0 1 0;
#X connect 5 0 2 0;
#X connect 6 0 3 0;
#X restore 523 276 pd reply others;
#X obj 523 48 t s;
#X obj 227 271 diff2d;
#X obj 187 250 list split 1;
#X obj 227 296 zexy/cart2sph;
#X obj 271 326 zexy/rad2deg;
#X obj 187 229 t l f;
#X obj 226 369 min_listheader;
#X obj 227 348 pack 0 0 0;
#X obj 198 390 list;
#X obj 319 209 t b b;
#X msg 198 488 \$3 \$1 \$2;
#X obj 391 490 loadbang;
#X obj 198 559 change -1;
#X obj 198 467 pack -1 -1 -1;
#X obj 299 679 pack 0 0;
#X obj 391 567 t f f;
#X obj 299 655 f -1;
#X obj 299 626 t f b;
#X obj 299 700 route -1;
#X obj 198 624 pack 0 0;
#X obj 198 594 t f f;
#X obj 391 541 t f l;
#X obj 492 573 swap;
#X obj 492 666 pack;
#X obj 492 621 until;
#X obj 492 598 t f b;
#X obj 492 642 i;
#X obj 522 641 + 1;
#X obj 251 822 sendcanvas 2;
#X obj 251 782 t a a;
#X msg 251 754 connect \$1 0 \$2 0;
#X msg 352 722 disconnect \$1 0 \$2 0;
#X text 63 24 connect others to me;
#X obj 187 180 filter_connected;
#X obj 199 114 t b b b b;
#X obj 187 206 filter_outlist;
#X obj 198 639 route -1;
#X obj 198 515 t f l;
#X obj 627 624 route -1;
#X obj 624 646 unpack 0 0 0;
#X obj 664 666 pack 0 0;
#X obj 523 213 oreceive;
#X obj 198 428 filter_mindist 100;
#X obj 319 229 parentposition 1;
#X obj 391 512 canvasindex 1;
#X obj 523 29 canvasdollarzero 2;
#X obj 523 7 loadbang;
#X msg 587 8 bang;
#X symbolatom 574 91 10 0 0 0 - - -;
#X obj 199 73 r tick_connector;
#X connect 0 0 44 0;
#X connect 2 0 52 0;
#X connect 2 1 1 1;
#X connect 2 1 59 0;
#X connect 3 0 2 0;
#X connect 4 0 10 0;
#X connect 5 0 8 0;
#X connect 5 1 1 0;
#X connect 5 2 7 0;
#X connect 6 0 4 1;
#X connect 7 0 6 0;
#X connect 8 0 6 0;
#X connect 9 0 5 0;
#X connect 11 0 3 0;
#X connect 12 0 14 0;
#X connect 13 1 12 0;
#X connect 14 0 18 0;
#X connect 14 1 15 0;
#X connect 15 0 18 1;
#X connect 16 0 13 0;
#X connect 16 1 18 2;
#X connect 17 0 19 1;
#X connect 18 0 17 0;
#X connect 19 0 53 0;
#X connect 20 0 54 0;
#X connect 20 1 17 1;
#X connect 21 0 48 0;
#X connect 22 0 55 0;
#X connect 23 0 31 0;
#X connect 24 0 21 0;
#X connect 25 0 29 0;
#X connect 26 0 25 1;
#X connect 26 1 30 1;
#X connect 27 0 25 0;
#X connect 28 0 27 1;
#X connect 28 1 27 0;
#X connect 29 1 42 0;
#X connect 30 0 47 0;
#X connect 31 0 30 0;
#X connect 31 1 28 0;
#X connect 32 0 26 0;
#X connect 32 0 46 1;
#X connect 32 1 33 0;
#X connect 33 0 36 0;
#X connect 33 1 34 1;
#X connect 34 0 42 0;
#X connect 35 0 37 0;
#X connect 36 0 35 0;
#X connect 37 0 38 0;
#X connect 37 0 34 0;
#X connect 38 0 37 1;
#X connect 40 0 39 0;
#X connect 41 0 40 0;
#X connect 42 0 40 0;
#X connect 44 0 46 0;
#X connect 45 0 19 0;
#X connect 45 1 9 0;
#X connect 45 2 20 0;
#X connect 45 3 44 1;
#X connect 46 0 16 0;
#X connect 47 1 41 0;
#X connect 48 0 23 0;
#X connect 48 1 49 0;
#X connect 49 1 50 0;
#X connect 50 1 51 0;
#X connect 50 2 51 1;
#X connect 52 0 4 0;
#X connect 53 0 24 0;
#X connect 54 0 12 1;
#X connect 55 0 32 0;
#X connect 56 0 11 0;
#X connect 57 0 56 0;
#X connect 58 0 56 0;
#X connect 60 0 45 0;
