#N canvas 0 0 450 300 10;
#X obj 63 91 inlet;
#X obj 71 256 outlet;
#X obj 214 107 inlet;
#X obj 68 138 unpack 0 0 0;
#X obj 72 225 pack 0 0 0;
#X obj 65 166 t f f;
#X obj 176 182 select 1;
#X msg 179 205 -1;
#X obj 176 160 > \$1;
#X connect 0 0 3 0;
#X connect 3 0 5 0;
#X connect 3 1 4 1;
#X connect 3 2 4 2;
#X connect 4 0 1 0;
#X connect 5 0 4 0;
#X connect 5 1 8 0;
#X connect 6 0 7 0;
#X connect 7 0 4 2;
#X connect 8 0 6 0;
