#N canvas 505 223 450 535 10;
#X obj 65 90 inlet;
#X obj 65 473 outlet;
#X obj 268 81 inlet;
#X obj 268 197 route outlet;
#X obj 268 218 route 0;
#X obj 268 145 t b;
#X obj 65 202 t l f;
#X obj 65 450 spigot;
#X obj 139 285 list;
#X obj 139 308 repack 1;
#X obj 107 263 t f b b;
#X msg 158 370 1;
#X obj 107 327 ==;
#X obj 107 347 select 1;
#X msg 107 370 0;
#X obj 158 395 t f;
#X obj 268 174 canvasconnections 2;
#X connect 0 0 6 0;
#X connect 2 0 5 0;
#X connect 3 0 4 0;
#X connect 4 0 8 1;
#X connect 5 0 16 0;
#X connect 6 0 7 0;
#X connect 6 1 10 0;
#X connect 7 0 1 0;
#X connect 8 0 9 0;
#X connect 9 0 12 1;
#X connect 10 0 12 0;
#X connect 10 1 8 0;
#X connect 10 2 11 0;
#X connect 11 0 15 0;
#X connect 12 0 13 0;
#X connect 13 0 14 0;
#X connect 14 0 15 0;
#X connect 15 0 7 1;
#X connect 16 0 3 0;
