#N canvas 505 223 450 535 10;
#X obj 65 90 inlet;
#X obj 65 473 outlet;
#X obj 268 81 inlet;
#X obj 65 202 t l f;
#X obj 65 450 spigot;
#X obj 139 285 list;
#X obj 139 308 repack 1;
#X obj 107 263 t f b b;
#X msg 158 370 1;
#X obj 107 327 ==;
#X obj 107 347 select 1;
#X msg 107 370 0;
#X obj 158 395 t f;
#X connect 0 0 3 0;
#X connect 2 0 5 1;
#X connect 3 0 4 0;
#X connect 3 1 7 0;
#X connect 4 0 1 0;
#X connect 5 0 6 0;
#X connect 6 0 9 1;
#X connect 7 0 9 0;
#X connect 7 1 5 0;
#X connect 7 2 8 0;
#X connect 8 0 12 0;
#X connect 9 0 10 0;
#X connect 10 0 11 0;
#X connect 11 0 12 0;
#X connect 12 0 4 1;
