#N canvas 0 0 991 494 10;
#X obj 187 159 r \$0-connector;
#X obj 537 182 s;
#X obj 523 88 t s s;
#X msg 523 68 symbol \$1-query;
#X obj 523 247 spigot 1;
#X obj 514 149 t b s b;
#X obj 619 193 t f;
#X msg 622 173 0;
#X msg 593 172 1;
#X obj 512 127 symbol \$0-connector;
#N canvas 106 216 918 384 reply 0;
#X obj 123 219 s;
#X obj 123 118 t b b s;
#X obj 123 199 pack 0 0 0;
#X obj 156 178 unpack;
#X obj 123 97 inlet;
#X obj 123 139 canvasindex 2;
#X obj 155 158 canvasposition 2;
#X connect 1 0 5 0;
#X connect 1 1 6 0;
#X connect 1 2 0 1;
#X connect 2 0 0 0;
#X connect 3 0 2 1;
#X connect 3 1 2 2;
#X connect 4 0 1 0;
#X connect 5 0 2 0;
#X connect 6 0 3 0;
#X restore 523 276 pd reply others;
#X obj 523 48 t s;
#X obj 187 250 list split 1;
#X obj 187 229 t l f;
#X obj 227 348 pack 0 0 0;
#X obj 198 390 list;
#X obj 319 209 t b b;
#X msg 198 488 \$3 \$1 \$2;
#X obj 391 490 loadbang;
#X obj 198 559 change -1;
#X obj 198 467 pack -1 -1 -1;
#X obj 299 679 pack 0 0;
#X obj 391 567 t f f;
#X obj 299 655 f -1;
#X obj 299 626 t f b;
#X obj 299 700 route -1;
#X obj 198 624 pack 0 0;
#X obj 198 594 t f f;
#X obj 391 541 t f l;
#X obj 492 573 swap;
#X obj 492 666 pack;
#X obj 492 621 until;
#X obj 492 598 t f b;
#X obj 492 642 i;
#X obj 522 641 + 1;
#X obj 251 822 sendcanvas 2;
#X obj 251 782 t a a;
#X msg 251 754 connect \$1 0 \$2 0;
#X msg 352 722 disconnect \$1 0 \$2 0;
#X text 63 24 connect others to me;
#X obj 199 114 t b b b b;
#X obj 198 639 route -1;
#X obj 523 213 oreceive;
#X obj 391 512 canvasindex 1;
#X obj 523 29 canvasdollarzero 2;
#X obj 523 7 loadbang;
#X msg 587 8 bang;
#X symbolatom 574 91 10 0 0 0 - - -;
#X obj 198 515 t f;
#X text 202 448 <x> <y> <id>;
#X text 209 543 <id>;
#X text 111 543 connect to:;
#X obj 418 799 s connect;
#X obj 419 773 list prepend \$0;
#X obj 259 71 r tick_connector_time;
#X obj 199 91 metro 100;
#X obj 199 71 loadbang;
#N canvas 0 0 450 569 filter_connected 0;
#X obj 65 90 inlet;
#X obj 65 513 outlet;
#X obj 268 81 inlet;
#X obj 268 197 route outlet;
#X obj 268 218 route 0;
#X obj 268 145 t b;
#X obj 65 202 t l f;
#X obj 65 490 spigot;
#X obj 139 285 list;
#X obj 139 310 repack 1;
#X obj 107 263 t f b b;
#X msg 158 410 1;
#X obj 107 367 ==;
#X obj 107 387 select 1;
#X msg 107 410 0;
#X obj 158 435 t f;
#X obj 268 174 canvasconnections 2;
#X obj 139 331 route bang;
#X msg 139 351 -1;
#X connect 0 0 6 0;
#X connect 2 0 5 0;
#X connect 3 0 4 0;
#X connect 4 0 8 1;
#X connect 5 0 16 0;
#X connect 6 0 7 0;
#X connect 6 1 10 0;
#X connect 7 0 1 0;
#X connect 8 0 9 0;
#X connect 9 0 17 0;
#X connect 10 0 12 0;
#X connect 10 1 8 0;
#X connect 10 2 11 0;
#X connect 11 0 15 0;
#X connect 12 0 13 0;
#X connect 13 0 14 0;
#X connect 14 0 15 0;
#X connect 15 0 7 1;
#X connect 16 0 3 0;
#X connect 17 0 18 0;
#X connect 17 1 12 1;
#X connect 18 0 12 1;
#X restore 187 182 pd filter_connected;
#N canvas 0 0 406 552 filter_outlist 0;
#X obj 65 90 inlet;
#X obj 65 473 outlet;
#X obj 268 81 inlet;
#X obj 65 202 t l f;
#X obj 65 450 spigot;
#X obj 139 285 list;
#X obj 139 308 repack 1;
#X obj 107 263 t f b b;
#X msg 158 370 1;
#X obj 107 327 ==;
#X obj 107 347 select 1;
#X msg 107 370 0;
#X obj 158 395 t f;
#X connect 0 0 3 0;
#X connect 2 0 5 1;
#X connect 3 0 4 0;
#X connect 3 1 7 0;
#X connect 4 0 1 0;
#X connect 5 0 6 0;
#X connect 6 0 9 1;
#X connect 7 0 9 0;
#X connect 7 1 5 0;
#X connect 7 2 8 0;
#X connect 8 0 12 0;
#X connect 9 0 10 0;
#X connect 10 0 11 0;
#X connect 11 0 12 0;
#X connect 12 0 4 1;
#X restore 187 206 pd filter_outlist;
#N canvas 0 0 498 559 min_listheader 0;
#X obj 81 73 inlet;
#X obj 324 72 inlet reset;
#X obj 81 365 outlet list;
#X obj 81 96 t f l;
#X obj 81 247 list;
#X obj 81 170 min 1e+38;
#X msg 324 96 1e+38;
#X obj 81 196 change;
#X obj 141 146 t f f;
#X obj 81 219 t b f;
#X msg 173 170 set \$1;
#X connect 0 0 3 0;
#X connect 1 0 6 0;
#X connect 3 0 5 0;
#X connect 3 1 4 1;
#X connect 4 0 2 0;
#X connect 5 0 7 0;
#X connect 6 0 8 0;
#X connect 7 0 9 0;
#X connect 8 0 5 1;
#X connect 8 1 10 0;
#X connect 9 0 4 0;
#X connect 9 1 5 1;
#X connect 10 0 7 0;
#X restore 227 368 pd min_listheader;
#N canvas 0 0 450 300 filter_mindist 0;
#X obj 63 91 inlet;
#X obj 71 256 outlet;
#X obj 214 107 inlet;
#X obj 68 138 unpack 0 0 0;
#X obj 72 225 pack 0 0 0;
#X obj 65 166 t f f;
#X obj 176 182 select 1;
#X msg 179 205 -1;
#X obj 173 162 > 200;
#X connect 0 0 3 0;
#X connect 2 0 8 1;
#X connect 3 0 5 0;
#X connect 3 1 4 1;
#X connect 3 2 4 2;
#X connect 4 0 1 0;
#X connect 5 0 4 0;
#X connect 5 1 8 0;
#X connect 6 0 7 0;
#X connect 7 0 4 2;
#X connect 8 0 6 0;
#X restore 198 426 pd filter_mindist 200;
#N canvas 0 0 450 491 diff2d 0;
#X obj 93 122 inlet;
#X obj 202 121 inlet;
#X obj 93 349 outlet;
#X obj 93 154 unpack;
#X obj 202 154 unpack;
#X obj 93 194 -;
#X obj 143 194 -;
#X obj 93 230 pack;
#X connect 0 0 3 0;
#X connect 1 0 4 0;
#X connect 3 0 5 0;
#X connect 3 1 6 0;
#X connect 4 0 5 1;
#X connect 4 1 6 1;
#X connect 5 0 7 0;
#X connect 6 0 7 1;
#X connect 7 0 2 0;
#X restore 227 274 pd diff2d;
#X obj 319 229 canvasposition 1;
#X obj 227 296 cart2sph;
#X obj 271 326 rad2deg;
#X connect 0 0 57 0;
#X connect 2 0 42 0;
#X connect 2 1 1 1;
#X connect 2 1 47 0;
#X connect 3 0 2 0;
#X connect 4 0 10 0;
#X connect 5 0 8 0;
#X connect 5 1 1 0;
#X connect 5 2 7 0;
#X connect 6 0 4 1;
#X connect 7 0 6 0;
#X connect 8 0 6 0;
#X connect 9 0 5 0;
#X connect 11 0 3 0;
#X connect 12 1 61 0;
#X connect 13 0 12 0;
#X connect 13 1 14 2;
#X connect 14 0 59 0;
#X connect 15 0 60 0;
#X connect 16 0 62 0;
#X connect 16 1 59 1;
#X connect 17 0 48 0;
#X connect 18 0 43 0;
#X connect 19 0 27 0;
#X connect 20 0 17 0;
#X connect 21 0 25 0;
#X connect 22 0 21 1;
#X connect 22 1 26 1;
#X connect 23 0 21 0;
#X connect 24 0 23 1;
#X connect 24 1 23 0;
#X connect 25 1 38 0;
#X connect 26 0 41 0;
#X connect 27 0 26 0;
#X connect 27 1 24 0;
#X connect 28 0 22 0;
#X connect 28 0 58 1;
#X connect 28 1 29 0;
#X connect 29 0 32 0;
#X connect 29 1 30 1;
#X connect 30 0 38 0;
#X connect 31 0 33 0;
#X connect 32 0 31 0;
#X connect 33 0 34 0;
#X connect 33 0 30 0;
#X connect 34 0 33 1;
#X connect 36 0 35 0;
#X connect 36 1 53 0;
#X connect 37 0 36 0;
#X connect 38 0 36 0;
#X connect 40 0 15 0;
#X connect 40 1 9 0;
#X connect 40 2 16 0;
#X connect 40 3 57 1;
#X connect 41 1 37 0;
#X connect 42 0 4 0;
#X connect 43 0 28 0;
#X connect 44 0 11 0;
#X connect 45 0 44 0;
#X connect 46 0 44 0;
#X connect 48 0 19 0;
#X connect 53 0 52 0;
#X connect 54 0 55 1;
#X connect 55 0 40 0;
#X connect 56 0 55 0;
#X connect 57 0 58 0;
#X connect 58 0 13 0;
#X connect 59 0 15 1;
#X connect 60 0 20 0;
#X connect 61 0 63 0;
#X connect 62 0 61 1;
#X connect 63 0 14 0;
#X connect 63 1 64 0;
#X connect 64 0 14 1;
