#N canvas 0 0 777 376 10;
#X obj 229 177 unpack;
#X obj 192 300 pack 0 0;
#X obj 313 177 unpack;
#X obj 313 197 - 30;
#X obj 356 219 - 30;
#N canvas 0 0 450 522 randomwalk 0;
#X obj 139 119 t f b;
#X obj 139 167 +;
#X obj 139 72 inlet;
#X obj 310 61 inlet bound;
#X obj 139 218 t f f;
#X obj 246 239 t f f;
#X obj 139 196 + 1;
#X obj 139 266 outlet;
#X obj 278 277 > 400;
#X obj 246 277 < 0;
#X obj 246 319 select 1;
#X obj 246 300 change;
#X obj 316 319 select 1;
#X obj 316 300 change;
#X msg 316 339 -1;
#X obj 246 366 t f;
#X floatatom 291 374 5 0 0 0 - - -;
#X msg 246 337 1;
#X obj 246 391 * 3;
#N canvas 0 0 450 300 randomoffset 0;
#X obj 148 54 inlet;
#X obj 148 253 outlet;
#X obj 148 118 random 101;
#X obj 148 88 b;
#X obj 148 140 / 50;
#X obj 148 165 - 1;
#X obj 148 212 + 0.5;
#X obj 148 232 i;
#X obj 258 59 inlet;
#X obj 315 57 loadbang;
#X obj 315 80 f \$1;
#X obj 251 142 t f;
#X obj 315 103 select 0;
#X obj 148 185 * 5;
#X connect 0 0 3 0;
#X connect 2 0 4 0;
#X connect 3 0 2 0;
#X connect 4 0 5 0;
#X connect 5 0 13 0;
#X connect 6 0 7 0;
#X connect 7 0 1 0;
#X connect 8 0 11 0;
#X connect 9 0 10 0;
#X connect 10 0 12 0;
#X connect 11 0 13 1;
#X connect 12 1 11 0;
#X connect 13 0 6 0;
#X restore 171 140 pd randomoffset;
#X connect 0 0 1 0;
#X connect 0 1 19 0;
#X connect 1 0 6 0;
#X connect 2 0 0 0;
#X connect 3 0 8 1;
#X connect 4 0 7 0;
#X connect 4 1 5 0;
#X connect 5 0 9 0;
#X connect 5 1 8 0;
#X connect 6 0 4 0;
#X connect 8 0 13 0;
#X connect 9 0 11 0;
#X connect 10 0 17 0;
#X connect 11 0 10 0;
#X connect 12 0 14 0;
#X connect 13 0 12 0;
#X connect 14 0 15 0;
#X connect 15 0 18 0;
#X connect 16 0 18 1;
#X connect 17 0 15 0;
#X connect 18 0 6 1;
#X connect 19 0 1 1;
#X restore 229 231 pd randomwalk;
#N canvas 0 0 450 522 randomwalk 0;
#X obj 139 119 t f b;
#X obj 139 167 +;
#X obj 139 72 inlet;
#X obj 310 61 inlet bound;
#X obj 139 218 t f f;
#X obj 246 239 t f f;
#X obj 139 196 + 1;
#X obj 139 266 outlet;
#X obj 278 277 > 400;
#X obj 246 277 < 0;
#X obj 246 319 select 1;
#X obj 246 300 change;
#X obj 316 319 select 1;
#X obj 316 300 change;
#X msg 316 339 -1;
#X obj 246 366 t f;
#X floatatom 291 374 5 0 0 0 - - -;
#X msg 246 337 1;
#X obj 245 391 * 3;
#N canvas 0 0 450 300 randomoffset 0;
#X obj 148 54 inlet;
#X obj 148 253 outlet;
#X obj 148 118 random 101;
#X obj 148 88 b;
#X obj 148 140 / 50;
#X obj 148 165 - 1;
#X obj 148 212 + 0.5;
#X obj 148 232 i;
#X obj 258 59 inlet;
#X obj 315 57 loadbang;
#X obj 315 80 f \$1;
#X obj 251 142 t f;
#X obj 315 103 select 0;
#X obj 148 185 * 5;
#X connect 0 0 3 0;
#X connect 2 0 4 0;
#X connect 3 0 2 0;
#X connect 4 0 5 0;
#X connect 5 0 13 0;
#X connect 6 0 7 0;
#X connect 7 0 1 0;
#X connect 8 0 11 0;
#X connect 9 0 10 0;
#X connect 10 0 12 0;
#X connect 11 0 13 1;
#X connect 12 1 11 0;
#X connect 13 0 6 0;
#X restore 171 140 pd randomoffset;
#X connect 0 0 1 0;
#X connect 0 1 19 0;
#X connect 1 0 6 0;
#X connect 2 0 0 0;
#X connect 3 0 8 1;
#X connect 4 0 7 0;
#X connect 4 1 5 0;
#X connect 5 0 9 0;
#X connect 5 1 8 0;
#X connect 6 0 4 0;
#X connect 8 0 13 0;
#X connect 9 0 11 0;
#X connect 10 0 17 0;
#X connect 11 0 10 0;
#X connect 12 0 14 0;
#X connect 13 0 12 0;
#X connect 14 0 15 0;
#X connect 15 0 18 0;
#X connect 16 0 18 1;
#X connect 17 0 15 0;
#X connect 18 0 6 1;
#X connect 19 0 1 1;
#X restore 268 271 pd randomwalk;
#X obj 424 337 outlet;
#X obj 494 338 outlet;
#X obj 427 315 /;
#X obj 496 314 /;
#X obj 229 112 metro 100;
#X obj 229 84 loadbang;
#X obj 303 82 r tick_mover_time;
#X obj 229 144 canvasposition 1;
#X connect 0 0 5 0;
#X connect 0 0 9 0;
#X connect 0 1 6 0;
#X connect 0 1 10 0;
#X connect 1 0 14 0;
#X connect 2 0 3 0;
#X connect 2 1 4 0;
#X connect 3 0 5 1;
#X connect 3 0 9 1;
#X connect 4 0 6 1;
#X connect 4 0 10 1;
#X connect 5 0 1 0;
#X connect 6 0 1 1;
#X connect 9 0 7 0;
#X connect 10 0 8 0;
#X connect 11 0 14 0;
#X connect 12 0 11 0;
#X connect 13 0 11 1;
#X connect 14 0 0 0;
#X connect 14 1 2 0;
