#N canvas 202 148 450 300 10;
#X obj 153 157 netsend 1;
#X msg 153 130 connect localhost 6666 \, send quit;
#X obj 153 44 loadbang;
#X obj 153 78 t b b;
#X msg 206 94 \; pd dsp 0;
#X connect 1 0 0 0;
#X connect 2 0 3 0;
#X connect 3 0 1 0;
#X connect 3 1 4 0;
