#N canvas 396 133 628 635 10;
#X declare -lib pdstring;
#X declare -lib pdstring;
#X declare -lib pdstring;
#X declare -lib pdstring;
#X declare -lib pdstring;
#X declare -lib pdstring;
#X text 106 233 <-> DSP;
#X text 221 231 <-> GUI;
#X obj 235 429 draw_cursor;
#X obj 104 294 server \$1;
#X obj 210 294 server \$2;
#X obj 210 322 filter;
#X obj 104 316 t a a;
#X obj 104 405 cache4newgui;
#X obj 104 250 t a;
#X obj 235 406 ppprint cursor;
#X obj 245 518 tgl 15 0 empty empty empty 17 7 0 10 -262144 -1 -1 0
1;
#X obj 245 539 s _ppprint;
#X obj 210 345 t a a a;
#X obj 18 287 sprint 2DSP;
#X obj 210 245 t a a;
#X obj 104 174 any2string_SEMICRLF;
#X msg 104 154 pd open patch.pd sandbox;
#X text 54 48 PROXY: this is the main proxy between the engine (DSP)
and the GUIs;
#X text 56 91 (c) 2007 IOhannes m zmoelnig;
#X text 263 168 open up a ready-made patch;
#X obj 275 256 sprint 2GUI;
#X obj 104 111 r PROXYdsp_initialized;
#X obj 104 133 del 1000;
#X connect 2 0 14 0;
#X connect 3 0 6 0;
#X connect 4 0 5 0;
#X connect 4 1 7 1;
#X connect 4 2 2 1;
#X connect 5 0 12 0;
#X connect 5 1 14 0;
#X connect 6 0 7 0;
#X connect 6 1 14 0;
#X connect 7 0 4 1;
#X connect 7 1 8 0;
#X connect 8 0 3 0;
#X connect 8 0 13 0;
#X connect 9 0 2 0;
#X connect 10 0 11 0;
#X connect 12 0 8 0;
#X connect 12 1 9 0;
#X connect 14 0 4 0;
#X connect 14 1 20 0;
#X connect 15 0 8 0;
#X connect 16 0 15 0;
#X connect 21 0 22 0;
