#N canvas 13 95 482 589 10;
#X declare -lib pdstring;
#X declare -lib pdstring;
#X declare -lib pdstring;
#X obj 104 323 list prepend 0;
#X obj 104 283 messbuffer;
#X text 106 193 <-> DSP;
#X text 221 191 <-> GUI;
#X obj 106 120 tgl 15 0 empty empty empty 17 7 0 10 -262144 -1 -1 0
1;
#X obj 216 122 tgl 15 0 empty empty empty 17 7 0 10 -262144 -1 -1 0
1;
#X obj 109 53 r netdebug;
#X obj 113 77 t f f;
#X obj 181 55 tgl 15 0 empty empty empty 17 7 0 10 -262144 -1 -1 0
1;
#X obj 104 303 t l l;
#X obj 233 419 sprint repeatGUI;
#X obj 317 120 tgl 15 0 empty empty empty 17 7 0 10 -262144 -1 -1 0
1;
#X obj 317 144 s repeatGUI-debug;
#X msg 50 250 bang;
#X msg 48 284 clear;
#X msg 235 376 client \$1;
#X obj 159 245 t f f;
#X obj 235 396 print repeat_GUI;
#X obj 106 144 s from\$1-debug;
#X obj 216 146 s from\$2-debug;
#X obj 210 214 myserver \$2;
#X obj 180 19 loadbang;
#X msg 180 36 0;
#X obj 210 235 t a a;
#X obj 104 214 myserver \$1;
#N canvas 0 0 450 300 validate 0;
#X obj 64 37 inlet;
#X obj 64 86 > 0;
#X obj 64 60 t f;
#X obj 64 106 select 1;
#X obj 64 131 outlet;
#X connect 0 0 2 0;
#X connect 1 0 3 0;
#X connect 2 0 1 0;
#X connect 3 0 4 0;
#X restore 117 264 pd validate;
#X obj 104 236 t a a;
#X obj 240 257 draw_cursor;
#X connect 0 0 20 1;
#X connect 1 0 9 0;
#X connect 4 0 18 0;
#X connect 5 0 19 0;
#X connect 6 0 7 0;
#X connect 7 0 4 0;
#X connect 7 1 5 0;
#X connect 8 0 7 0;
#X connect 9 0 0 0;
#X connect 9 1 10 0;
#X connect 11 0 12 0;
#X connect 13 0 1 0;
#X connect 14 0 1 0;
#X connect 15 0 17 0;
#X connect 16 0 25 0;
#X connect 16 1 0 1;
#X connect 16 1 15 0;
#X connect 20 0 23 0;
#X connect 20 1 16 0;
#X connect 20 2 27 1;
#X connect 21 0 22 0;
#X connect 22 0 8 0;
#X connect 22 0 11 0;
#X connect 23 0 24 0;
#X connect 23 1 27 0;
#X connect 24 0 26 0;
#X connect 25 0 1 0;
#X connect 26 0 1 0;
#X connect 26 1 20 0;
#X connect 27 0 20 0;
