#N canvas 551 97 673 620 10;
#X obj 84 65 inlet rawdata;
#X obj 188 65 inlet symdata;
#X obj 84 541 outlet rawdata;
#X obj 188 541 outlet symdata;
#X obj 213 143 route pd;
#X obj 84 472 spigot;
#X obj 213 165 route verifyquit quit;
#X msg 213 330 0;
#X text 96 20 supress quit/menuquit messages \, so the pd-gui cannot
quit the engine;
#X obj 188 472 spigot;
#X obj 115 392 f;
#X msg 115 332 1;
#X obj 213 308 t b b;
#X msg 409 483 QUIT disabled;
#X obj 188 103 t a a b;
#X obj 409 512 s PROXY_guipost;
#X connect 0 0 5 0;
#X connect 1 0 14 0;
#X connect 4 0 6 0;
#X connect 5 0 2 0;
#X connect 6 0 12 0;
#X connect 6 1 12 0;
#X connect 7 0 10 0;
#X connect 9 0 3 0;
#X connect 10 0 5 1;
#X connect 10 0 9 1;
#X connect 11 0 10 0;
#X connect 12 0 7 0;
#X connect 12 1 13 0;
#X connect 13 0 15 0;
#X connect 14 0 9 0;
#X connect 14 1 4 0;
#X connect 14 2 11 0;
