#N canvas 57 224 673 620 10;
#X obj 84 65 inlet rawdata;
#X obj 188 65 inlet symdata;
#X obj 84 541 outlet rawdata;
#X obj 188 541 outlet symdata;
#X obj 84 472 spigot;
#X obj 188 472 spigot;
#X obj 115 432 f;
#X msg 115 392 1;
#X text 96 20 supress "map 0/1" messages \, so that the pd-engine does
not know which windows the pd-gui has minimized.;
#X msg 213 380 0;
#X obj 213 358 t b b;
#X obj 213 205 list split 1;
#X obj 251 228 route list;
#X obj 251 249 route map;
#X obj 251 267 t f;
#X obj 251 292 select 0;
#X obj 188 103 t a a b;
#X msg 409 513 hide window disabled;
#X obj 409 532 s PROXY_guipost;
#X connect 0 0 4 0;
#X connect 1 0 16 0;
#X connect 4 0 2 0;
#X connect 5 0 3 0;
#X connect 6 0 4 1;
#X connect 6 0 5 1;
#X connect 7 0 6 0;
#X connect 9 0 6 0;
#X connect 10 0 9 0;
#X connect 10 1 17 0;
#X connect 11 1 12 0;
#X connect 12 0 13 0;
#X connect 13 0 14 0;
#X connect 14 0 15 0;
#X connect 15 0 10 0;
#X connect 16 0 5 0;
#X connect 16 1 11 0;
#X connect 16 2 7 0;
#X connect 17 0 18 0;
