#N canvas 169 207 673 620 10;
#X obj 84 125 inlet rawdata;
#X obj 188 125 inlet symdata;
#X obj 84 541 outlet rawdata;
#X obj 188 541 outlet symdata;
#X obj 188 163 t a a;
#X text 96 20 this is not an ordinary filter as we pass through all
data.;
#X text 100 40 however \, the filter has side-effects.;
#X text 98 68 whenever a windows is destroyed \, we tell our internal
window-manager to remove it from its list of active windows;
#X obj 213 190 t a a;
#X obj 243 211 symbol;
#X obj 213 233 list split 1;
#X obj 252 268 list trim;
#X obj 252 288 route menuclose;
#X obj 252 336 select 1;
#X obj 252 360 symbol;
#X obj 252 309 t f f;
#X obj 252 413 s PROXYgui_deletedwindow;
#X msg 409 516 closed window \$1;
#X obj 252 380 t s s;
#X text 355 495 just for debugging purposes;
#X obj 409 542 s PROXY_guipost;
#X connect 0 0 2 0;
#X connect 1 0 4 0;
#X connect 4 0 3 0;
#X connect 4 1 8 0;
#X connect 8 0 10 0;
#X connect 8 1 9 0;
#X connect 9 0 14 1;
#X connect 10 1 11 0;
#X connect 11 0 12 0;
#X connect 12 0 15 0;
#X connect 13 0 14 0;
#X connect 14 0 18 0;
#X connect 15 0 13 0;
#X connect 17 0 20 0;
#X connect 18 0 16 0;
#X connect 18 1 17 0;
