#N canvas 0 445 450 414 10;
#X obj 81 73 inlet;
#X obj 324 72 inlet reset;
#X obj 81 365 outlet list;
#X obj 81 96 t f l;
#X obj 81 247 list;
#X obj 81 170 min 1e+38;
#X msg 324 96 1e+38;
#X obj 81 196 change;
#X obj 141 146 t f f;
#X obj 81 219 t b f;
#X msg 173 170 set \$1;
#X connect 0 0 3 0;
#X connect 1 0 6 0;
#X connect 3 0 5 0;
#X connect 3 1 4 1;
#X connect 4 0 2 0;
#X connect 5 0 7 0;
#X connect 6 0 8 0;
#X connect 7 0 9 0;
#X connect 8 0 5 1;
#X connect 8 1 10 0;
#X connect 9 0 4 0;
#X connect 9 1 5 1;
#X connect 10 0 7 0;
