#N canvas 0 0 450 517 10;
#X obj 41 156 any2string;
#X obj 41 128 inlet;
#X obj 41 456 outlet;
#X obj 41 227 t l l;
#X obj 71 250 list length;
#X obj 41 310 list split;
#X obj 71 272 - 1;
#X obj 41 338 list append 59 13 10;
#X connect 0 0 3 0;
#X connect 1 0 0 0;
#X connect 3 0 5 0;
#X connect 3 1 4 0;
#X connect 4 0 6 0;
#X connect 5 0 7 0;
#X connect 6 0 5 1;
#X connect 7 0 2 0;
