#N canvas 0 0 450 300 10;
#X obj 41 156 any2string;
#X obj 41 207 str_0toCRLF;
#X obj 41 128 inlet;
#X obj 41 228 outlet;
#X obj 41 181 ppprint crlf;
#X connect 0 0 4 0;
#X connect 1 0 3 0;
#X connect 2 0 0 0;
#X connect 4 0 1 0;
