#N canvas 246 0 450 453 10;
#X obj 162 199 list prepend 0;
#X obj 162 159 messbuffer;
#X obj 225 91 t f f;
#N canvas 0 0 450 300 validate 0;
#X obj 64 37 inlet;
#X obj 64 86 > 0;
#X obj 64 60 t f;
#X obj 64 106 select 1;
#X obj 64 131 outlet;
#X connect 0 0 2 0;
#X connect 1 0 3 0;
#X connect 2 0 1 0;
#X connect 3 0 4 0;
#X restore 169 131 pd validate;
#X obj 162 57 inlet;
#X obj 225 56 inlet;
#X obj 162 224 outlet;
#X text 51 272 <windowID> map 0 \; <windowID> map 1 \;;
#X text 43 290 pE.".x8142d70 map 0 \; .x8142d70 map 1 \; ";
#X text 26 346 TODO: keep track of all existing windows (track deletion!)
;
#X connect 0 0 6 0;
#X connect 1 0 0 0;
#X connect 2 0 3 0;
#X connect 2 1 0 1;
#X connect 3 0 1 0;
#X connect 4 0 1 0;
#X connect 5 0 2 0;
