#N canvas 372 19 908 718 10;
#X obj 41 4 inlet;
#X obj 213 55 inlet id;
#X obj 39 638 outlet broadcast;
#X obj 41 23 string2any;
#X obj 41 129 list split 1;
#X obj 80 151 list trim;
#X obj 80 253 unpack 0 0;
#X obj 39 515 list trim;
#X obj 118 429 symbol;
#X obj 80 172 route motion map;
#X obj 244 208 matchbox;
#X msg 244 188 dump;
#X msg 118 471 list \$1.c;
#X obj 39 494 list prepend;
#X obj 39 403 t l;
#X obj 133 194 route 1;
#X obj 133 214 bang;
#X obj 213 94 t f f;
#X obj 295 186 list;
#X obj 41 78 t a a;
#X obj 80 323 - 3;
#X obj 110 323 - 3;
#X obj 244 229 t f f;
#X obj 244 274 pack 0 s;
#X msg 244 297 list create rectangle 100 100 100 100 -fill \$2 -tags
\$1_cursor;
#X obj 80 382 pack 0 0 0 0 0;
#X msg 80 404 list coords \$5_cursor \$1 \$2 \$3 \$4;
#X obj 39 598 any2string_CRLF;
#X obj 149 324 + 4;
#X obj 173 324 + 4;
#X obj 39 570 ppprint pre_a2s;
#X obj 39 619 ppprint posta2s;
#N canvas 316 158 450 438 README 0;
#X text 43 369 (c) 2007 IOhannes m zmoelnig;
#X text 67 37 draw the participants cursors;
#X text 38 62 in order to have some feedback on what the others are
doing \, we want to know where their cursors currently are.;
#X text 37 104 the idea is rather straight-forward:;
#X text 46 132 whenever a new window is created \, we create a "cursor"
(a coloured square) for each connected client in this window.;
#X text 46 154 (clour and widget-id depend on the socket-id of the
client);
#X text 43 176 whenever a user moves their pointer within a window
\, we grab this info from the gui->dsp stream and move the "cursor"s
on all clients to the new position.;
#X text 43 214 the dsp need not know anything about this.;
#X text 47 247 caveats: no way to guarantee that a user gets the same
cursor after a re-connect (good too \, as it allows multiple connections/cursors
from the same IP.;
#X text 48 290 TODO: make the cursor vanish \, when the user leaves
the window (currently it just hangs around until we re-enter the window)
;
#X restore 343 57 pd README;
#X symbolatom 206 453 10 0 0 0 - - -;
#X msg 294 490 list configure -background #DDDDDD;
#X msg 301 515 list configure -background #FFFFFF;
#X obj 330 461 select 0 1;
#X obj 358 417 tgl 15 0 empty empty empty 17 7 0 10 -262144 -1 -1 0
1;
#X obj 357 394 metro 1000;
#X obj 357 367 tgl 15 0 empty empty empty 17 7 0 10 -262144 -1 -1 0
1;
#X obj 252 529 t l;
#X msg 186 431 bang;
#N canvas 830 500 450 300 \$0-timeouts 0;
#X obj 100 0 timeout .x71fee0 1004;
#X obj 100 30 timeout 71fee0 1004;
#X obj 100 60 timeout list 1004;
#X obj 100 90 timeout 1fee0 1004;
#X obj 100 120 timeout x71fee0 1004;
#X obj 100 150 timeout .x7269e0 1004;
#X obj 100 180 timeout ee0 1004;
#X obj 100 210 timeout .x727a30 1004;
#X restore 382 656 pd \$0-timeouts;
#N canvas 517 370 744 421 build-timeouts 0;
#X obj 80 353 s pd-\$0-timeouts;
#X obj 289 137 s blabla-ping;
#X msg 287 107 huhu;
#X obj 315 199 r huhu;
#X obj 317 219 bng 15 250 50 0 empty empty empty 17 7 0 10 -262144
-1 -1;
#X obj 78 55 inlet <id>;
#X obj 78 80 symbol;
#X obj 78 103 t s s;
#N canvas 0 0 450 487 exists? 0;
#X obj 170 157 symbol \$0-ping;
#X obj 170 199 s;
#X obj 170 135 t b s;
#X msg 203 177 symbol \$1-ping;
#X obj 165 52 inlet;
#X obj 160 419 outlet;
#X obj 160 393 f;
#X obj 165 90 t b s b;
#X msg 211 113 0;
#X obj 165 240 r \$0-ping;
#X obj 167 269 t b;
#X msg 166 294 1;
#X connect 0 0 1 0;
#X connect 2 0 0 0;
#X connect 2 1 3 0;
#X connect 3 0 1 1;
#X connect 4 0 7 0;
#X connect 6 0 5 0;
#X connect 7 0 6 0;
#X connect 7 1 2 0;
#X connect 7 2 8 0;
#X connect 8 0 6 1;
#X connect 9 0 10 0;
#X connect 10 0 11 0;
#X connect 11 0 6 1;
#X restore 110 126 pd exists?;
#X msg 161 62 symbol blabl;
#X obj 78 175 spigot;
#X obj 110 150 == 0;
#X obj 79 213 t s b;
#X obj 115 238 i;
#X obj 155 240 + 1;
#X obj 116 260 * 30;
#X msg 79 306 obj 100 \$2 timeout \$1 \$3;
#X obj 77 283 pack s 0 \$0;
#X obj 457 155 loadbang;
#X msg 458 181 clear;
#X connect 2 0 1 0;
#X connect 3 0 4 0;
#X connect 5 0 6 0;
#X connect 6 0 7 0;
#X connect 7 0 10 0;
#X connect 7 1 8 0;
#X connect 8 0 11 0;
#X connect 9 0 6 0;
#X connect 10 0 12 0;
#X connect 11 0 10 1;
#X connect 12 0 17 0;
#X connect 12 1 13 0;
#X connect 13 0 14 0;
#X connect 13 0 15 0;
#X connect 14 0 13 1;
#X connect 15 0 17 1;
#X connect 16 0 0 0;
#X connect 17 0 16 0;
#X connect 18 0 19 0;
#X connect 19 0 0 0;
#X restore 385 621 pd build-timeouts;
#N canvas 160 327 654 473 check-timeout 0;
#X obj 252 144 s;
#X obj 252 89 t b s;
#X msg 284 110 symbol \$1-pong;
#X obj 252 38 inlet;
#X obj 252 65 symbol;
#X obj 251 178 r \$0-bg;
#X obj 251 209 list split 1;
#X obj 259 333 pack s s;
#X msg 326 180 2 bla;
#X msg 251 258 #FFFFFF;
#X obj 258 299 symbol;
#X msg 259 356 \$2.c configure -background \$1;
#X obj 259 384 outlet;
#X obj 251 233 select 0;
#X obj 497 45 inlet;
#X obj 249 115 f;
#X obj 352 255 id2color_light;
#X msg 309 280 #EEEEEE;
#X connect 1 0 15 0;
#X connect 1 1 2 0;
#X connect 2 0 0 1;
#X connect 3 0 4 0;
#X connect 4 0 1 0;
#X connect 5 0 6 0;
#X connect 6 0 13 0;
#X connect 6 1 7 1;
#X connect 7 0 11 0;
#X connect 8 0 6 0;
#X connect 9 0 10 0;
#X connect 10 0 7 0;
#X connect 11 0 12 0;
#X connect 13 0 17 0;
#X connect 13 1 9 0;
#X connect 14 0 15 1;
#X connect 15 0 0 0;
#X connect 16 0 10 0;
#X connect 17 0 10 0;
#X restore 242 648 pd check-timeout;
#X obj 285 596 symbol;
#X obj 284 615 t s s;
#X msg 107 71 .abc;
#X obj 39 542 t a;
#X obj 80 281 t f f b;
#X obj 119 450 t s s;
#X obj 279 250 id2color;
#X connect 0 0 3 0;
#X connect 1 0 17 0;
#X connect 3 0 19 0;
#X connect 4 1 5 0;
#X connect 5 0 9 0;
#X connect 6 0 49 0;
#X connect 6 1 21 0;
#X connect 6 1 29 0;
#X connect 7 0 48 0;
#X connect 8 0 50 0;
#X connect 9 0 6 0;
#X connect 9 1 15 0;
#X connect 10 0 22 0;
#X connect 11 0 10 0;
#X connect 12 0 13 1;
#X connect 13 0 7 0;
#X connect 14 0 13 0;
#X connect 15 0 16 0;
#X connect 16 0 11 0;
#X connect 17 0 25 4;
#X connect 17 0 44 1;
#X connect 17 1 18 0;
#X connect 18 0 10 1;
#X connect 19 0 4 0;
#X connect 19 1 8 0;
#X connect 20 0 25 0;
#X connect 21 0 25 1;
#X connect 22 0 23 0;
#X connect 22 1 51 0;
#X connect 23 0 24 0;
#X connect 24 0 14 0;
#X connect 25 0 26 0;
#X connect 26 0 14 0;
#X connect 27 0 31 0;
#X connect 28 0 25 2;
#X connect 29 0 25 3;
#X connect 30 0 27 0;
#X connect 31 0 2 0;
#X connect 34 0 40 0;
#X connect 35 0 40 0;
#X connect 36 0 34 0;
#X connect 36 1 35 0;
#X connect 37 0 36 0;
#X connect 38 0 37 0;
#X connect 39 0 38 0;
#X connect 40 0 13 0;
#X connect 41 0 8 0;
#X connect 44 0 48 0;
#X connect 45 0 46 0;
#X connect 46 0 44 0;
#X connect 46 1 43 0;
#X connect 47 0 19 0;
#X connect 48 0 30 0;
#X connect 49 0 20 0;
#X connect 49 1 28 0;
#X connect 49 2 45 0;
#X connect 50 0 12 0;
#X connect 50 1 33 0;
#X connect 50 1 45 1;
#X connect 51 0 23 1;
