#N canvas 183 174 841 460 10;
#X obj 93 76 inlet;
#X obj 93 392 outlet;
#X obj 126 122 string2any;
#X obj 93 98 t a a b;
#X obj 204 379 outlet toGUI;
#X obj 204 359 any2string_CRLF;
#N canvas 574 23 450 386 PROXYpost 0;
#X msg 161 144 123;
#X msg 191 147 125;
#X obj 161 198 makefilename %c;
#X obj 193 174 makefilename %c;
#X msg 161 96 bang;
#X obj 303 173 makefilename %c;
#X obj 161 123 t b b b;
#X msg 298 151 10;
#X obj 161 73 loadbang;
#X obj 81 224 pack s s s s;
#X msg 81 242 pdtk_post \$2 \$4PROXY: \$1 \$3;
#X obj 81 201 l2s;
#X obj 81 173 inlet;
#X obj 81 267 outlet;
#X connect 0 0 2 0;
#X connect 1 0 3 0;
#X connect 2 0 9 1;
#X connect 3 0 9 2;
#X connect 4 0 6 0;
#X connect 5 0 9 3;
#X connect 6 0 0 0;
#X connect 6 1 1 0;
#X connect 6 2 7 0;
#X connect 7 0 5 0;
#X connect 8 0 4 0;
#X connect 9 0 10 0;
#X connect 10 0 13 0;
#X connect 11 0 9 0;
#X connect 12 0 11 0;
#X restore 204 340 pd PROXYpost;
#X obj 93 227 filters/quit;
#X obj 93 245 filters/visible;
#X obj 93 263 filters/windestroy;
#X text 93 30 filters the messages from the pd-gui;
#X obj 516 157 filters/dummy;
#X obj 516 175 filters/print label;
#X text 517 131 available filters;
#X obj 204 304 r PROXY_guipost;
#X obj 204 321 t a a;
#X obj 245 322 print GUIpost;
#N canvas 514 197 450 407 README 0;
#X text 86 58 gui->dsp filtering;
#X text 71 374 (c) 2007 IOhannes m zmoelnig;
#X text 57 96 several messages from the gui to the dsp are rather annoying:
;
#X text 59 128 - QUIT: whenever a user chooses to "quit" \, this will
actually close quit the engine. we rather not want this \, at it stops
joy...;
#X text 58 173 - visibility: whenever a user minimizes a window (or
switches desktops) \, the gui sends an "unmap" request to the dsp \,
so it doesn't need to update the invisible gui. since one user might
minimize a window while others choose to continue work on it \, this
is rather pointless (the window contents would disappear until someone
issues a "map" request (e.g. by un-minimizing the window)) \; to make
a long story short \, we just drop the (un)map requests which makes
the engine update all windows all the time.;
#X restore 431 55 pd README;
#X text 344 328 this is for sending messages from the PROXY to the
gui's console (without telling the engine...);
#X connect 0 0 3 0;
#X connect 2 0 7 1;
#X connect 3 0 7 0;
#X connect 3 1 2 0;
#X connect 5 0 4 0;
#X connect 6 0 5 0;
#X connect 7 0 8 0;
#X connect 7 1 8 1;
#X connect 8 0 9 0;
#X connect 8 1 9 1;
#X connect 9 0 1 0;
#X connect 14 0 15 0;
#X connect 15 0 6 0;
#X connect 15 1 16 0;
