#N canvas 380 101 626 449 10;
#X obj 135 400 outlet color;
#X obj 129 49 inlet id;
#X obj 129 75 i;
#X obj 129 103 % 16;
#X msg 131 173 red;
#X msg 143 195 green;
#X msg 167 171 blue;
#X msg 197 195 brown;
#X msg 213 174 yellow;
#X msg 244 197 magenta;
#X msg 271 173 cyan;
#X msg 305 196 gold;
#X msg 323 172 pink;
#X obj 126 126 select 0 1 2 3 4 5 6 7 8;
#X obj 346 146 select 9 10 11 12 13 14 15 16;
#X msg 543 222 black;
#X msg 350 193 lightblue;
#X msg 363 245 lightgreen;
#X msg 387 221 gray;
#X msg 434 190 darkcyan;
#X msg 457 221 darkmagenta;
#X msg 500 187 green3;
#X msg 488 252 red3;
#X msg 530 267 blue3;
#X obj 355 281 t a;
#X obj 135 231 t a;
#X obj 135 379 symbol;
#X connect 1 0 2 0;
#X connect 2 0 3 0;
#X connect 3 0 13 0;
#X connect 4 0 25 0;
#X connect 5 0 25 0;
#X connect 6 0 25 0;
#X connect 7 0 25 0;
#X connect 8 0 25 0;
#X connect 9 0 25 0;
#X connect 10 0 25 0;
#X connect 11 0 25 0;
#X connect 12 0 25 0;
#X connect 13 0 4 0;
#X connect 13 1 5 0;
#X connect 13 2 6 0;
#X connect 13 3 7 0;
#X connect 13 4 8 0;
#X connect 13 5 9 0;
#X connect 13 6 10 0;
#X connect 13 7 11 0;
#X connect 13 8 12 0;
#X connect 13 9 14 0;
#X connect 14 0 16 0;
#X connect 14 1 17 0;
#X connect 14 2 18 0;
#X connect 14 3 20 0;
#X connect 14 4 19 0;
#X connect 14 5 22 0;
#X connect 14 6 21 0;
#X connect 14 7 23 0;
#X connect 14 8 15 0;
#X connect 15 0 24 0;
#X connect 16 0 24 0;
#X connect 17 0 24 0;
#X connect 18 0 24 0;
#X connect 19 0 24 0;
#X connect 20 0 24 0;
#X connect 21 0 24 0;
#X connect 22 0 24 0;
#X connect 23 0 24 0;
#X connect 24 0 26 0;
#X connect 25 0 26 0;
#X connect 26 0 0 0;
