#N canvas 100 48 626 449 10;
#X obj 135 400 outlet color;
#X obj 129 49 inlet id;
#X obj 129 75 i;
#X obj 135 231 t a;
#X obj 135 379 symbol;
#X obj 126 126 select 0 1 2 3 4 5 6;
#X obj 129 103 % 6;
#X msg 137 162 #DDDDFF;
#X msg 115 195 #DDFFDD;
#X msg 228 180 #FFDDFF;
#X msg 254 155 #DDFFFF;
#X floatatom 202 87 5 0 0 0 - - -;
#X msg 54 161 #FFDDDD;
#X msg 191 215 #FFFFDD;
#X connect 1 0 2 0;
#X connect 2 0 6 0;
#X connect 3 0 4 0;
#X connect 4 0 0 0;
#X connect 5 0 12 0;
#X connect 5 1 8 0;
#X connect 5 2 7 0;
#X connect 5 4 13 0;
#X connect 5 5 9 0;
#X connect 5 6 10 0;
#X connect 6 0 5 0;
#X connect 6 0 11 0;
#X connect 7 0 3 0;
#X connect 8 0 3 0;
#X connect 9 0 3 0;
#X connect 10 0 3 0;
#X connect 12 0 3 0;
#X connect 13 0 3 0;
