#N canvas 414 18 450 570 10;
#X obj 94 51 inlet id;
#X obj 94 248 hsv2rgb;
#X msg 94 220 \$1 1 1;
#X obj 94 108 / 11.123;
#X obj 94 270 unpack 0 0 0;
#X obj 94 142 wrap;
#X obj 94 376 i;
#X obj 94 354 * 255;
#X obj 94 332 clip 0 1;
#X obj 94 396 makefilename %02x;
#X obj 154 356 i;
#X obj 154 334 * 255;
#X obj 154 312 clip 0 1;
#X obj 154 376 makefilename %02x;
#X obj 224 336 i;
#X obj 224 314 * 255;
#X obj 224 292 clip 0 1;
#X obj 224 356 makefilename %02x;
#X obj 93 417 pack s s s;
#X msg 94 441 symbol #\$1\$2\$3;
#X obj 94 86 f;
#X obj 94 466 outlet color;
#X connect 0 0 20 0;
#X connect 1 0 4 0;
#X connect 2 0 1 0;
#X connect 3 0 5 0;
#X connect 4 0 8 0;
#X connect 4 1 12 0;
#X connect 4 2 16 0;
#X connect 5 0 2 0;
#X connect 6 0 9 0;
#X connect 7 0 6 0;
#X connect 8 0 7 0;
#X connect 9 0 18 0;
#X connect 10 0 13 0;
#X connect 11 0 10 0;
#X connect 12 0 11 0;
#X connect 13 0 18 1;
#X connect 14 0 17 0;
#X connect 15 0 14 0;
#X connect 16 0 15 0;
#X connect 17 0 18 2;
#X connect 18 0 19 0;
#X connect 19 0 21 0;
#X connect 20 0 3 0;
