#N canvas 380 101 626 449 10;
#X obj 135 400 outlet color;
#X obj 129 49 inlet id;
#X obj 129 75 i;
#X obj 167 297 t a;
#X obj 135 379 symbol;
#X msg 80 161 #FF0000;
#X msg 115 195 #00FF00;
#X msg 138 163 #0000FF;
#X msg 228 180 #FF00FF;
#X msg 254 155 #00FFFF;
#X obj 126 126 select 0 1 2 3 4 5 6;
#X obj 129 103 % 6;
#X floatatom 178 72 5 0 0 0 - - -;
#X floatatom 212 99 5 0 0 0 - - -;
#X msg 191 215 #FFFF00;
#X connect 1 0 2 0;
#X connect 2 0 11 0;
#X connect 2 0 12 0;
#X connect 3 0 4 0;
#X connect 4 0 0 0;
#X connect 5 0 3 0;
#X connect 6 0 3 0;
#X connect 7 0 3 0;
#X connect 8 0 3 0;
#X connect 9 0 3 0;
#X connect 10 0 5 0;
#X connect 10 1 6 0;
#X connect 10 2 7 0;
#X connect 10 4 14 0;
#X connect 10 5 8 0;
#X connect 10 6 9 0;
#X connect 11 0 10 0;
#X connect 11 0 13 0;
#X connect 14 0 3 0;
