#N canvas 112 91 450 300 10;
#X obj 134 88 inlet;
#X obj 152 259 outlet;
#X obj 134 176 t b a b;
#X obj 228 259 print \$1;
#X msg 228 192 pre;
#X msg 134 194 post;
#X obj 228 215 t a;
#X obj 228 239 spigot 0;
#X obj 271 219 r _ppprint;
#X text 42 36 pre/post/print;
#X text 29 63 just for debugging to find an error in a branch;
#X connect 0 0 2 0;
#X connect 2 0 5 0;
#X connect 2 1 1 0;
#X connect 2 2 4 0;
#X connect 4 0 6 0;
#X connect 5 0 6 0;
#X connect 6 0 7 0;
#X connect 7 0 3 0;
#X connect 8 0 7 1;
