#N canvas 387 151 450 300 10;
#X obj 71 29 inlet;
#X obj 112 245 outlet;
#X obj 88 51 t b a a b;
#X obj 109 85 string2any;
#X obj 36 114 print \$1_done_s2a;
#X obj 146 173 print \$1_post_s2a;
#X obj 229 101 print \$1_pre_s2a;
#X obj 114 146 t a a b;
#X connect 0 0 2 0;
#X connect 2 1 3 0;
#X connect 3 0 7 0;
#X connect 7 0 1 0;
