#N canvas 374 24 649 338 10;
#X declare -lib pdstring;
#X obj 101 113 list trim;
#X obj 101 93 list prepend broadcast;
#X obj 101 166 tcpserver \$1;
#X obj 101 225 t l l;
#X obj 101 67 inlet data;
#X obj 101 250 outlet data;
#X obj 280 83 list trim;
#X obj 280 33 inlet socketdata;
#X obj 280 65 list prepend send;
#X obj 380 313 outlet socket;
#X obj 153 224 sprint from\$1;
#X msg 417 234 1;
#X obj 380 272 spigot;
#X msg 444 235 0;
#X obj 380 292 t f b;
#X obj 417 250 f;
#X obj 417 196 t b b;
#X obj 442 214 del 0;
#X floatatom 156 295 5 0 0 0 - - -;
#X obj 547 303 outlet;
#X obj 337 224 t f f;
#X obj 101 139 t a a a;
#X obj 239 140 print postserver:\$1;
#X obj 241 160 print preserver:\$1;
#X connect 0 0 21 0;
#X connect 1 0 0 0;
#X connect 2 0 3 0;
#X connect 2 1 16 0;
#X connect 2 1 18 0;
#X connect 2 2 10 0;
#X connect 2 2 20 0;
#X connect 3 0 5 0;
#X connect 3 1 10 0;
#X connect 4 0 1 0;
#X connect 6 0 21 0;
#X connect 7 0 8 0;
#X connect 8 0 6 0;
#X connect 11 0 15 0;
#X connect 12 0 14 0;
#X connect 13 0 15 0;
#X connect 14 0 9 0;
#X connect 14 1 13 0;
#X connect 15 0 12 1;
#X connect 16 0 11 0;
#X connect 16 1 17 0;
#X connect 17 0 13 0;
#X connect 20 0 12 0;
#X connect 20 1 19 0;
#X connect 21 0 22 0;
#X connect 21 1 2 0;
#X connect 21 2 23 0;
