#N canvas 178 245 649 338 10;
#X declare -lib pdstring;
#X obj 101 143 list trim;
#X obj 101 123 list prepend broadcast;
#X obj 101 166 tcpserver \$1;
#X obj 101 225 t l l;
#X obj 101 250 outlet data;
#X obj 280 83 list trim;
#X obj 280 65 list prepend send;
#X msg 417 234 1;
#X obj 380 272 spigot;
#X msg 444 235 0;
#X obj 380 292 t f b;
#X obj 417 250 f;
#X obj 417 196 t b b;
#X obj 442 214 del 0;
#X floatatom 156 295 5 0 0 0 - - -;
#X obj 337 224 t f f;
#X obj 153 224 sprint from\$1;
#X obj 547 313 outlet socket;
#X obj 380 313 outlet newsocket;
#X obj 101 97 inlet broadcastdata;
#X obj 280 33 inlet singlesocketdata;
#X text 288 113 this is a [tcpserver] with some extra stuff:;
#X text 300 127 - separate inlets for broadcast/unicast;
#X text 299 140 - an outlet for the socket of newly connected clients
;
#X connect 0 0 2 0;
#X connect 1 0 0 0;
#X connect 2 0 3 0;
#X connect 2 1 12 0;
#X connect 2 1 14 0;
#X connect 2 2 15 0;
#X connect 2 2 16 0;
#X connect 3 0 4 0;
#X connect 3 1 16 0;
#X connect 5 0 2 0;
#X connect 6 0 5 0;
#X connect 7 0 11 0;
#X connect 8 0 10 0;
#X connect 9 0 11 0;
#X connect 10 0 18 0;
#X connect 10 1 9 0;
#X connect 11 0 8 1;
#X connect 12 0 7 0;
#X connect 12 1 13 0;
#X connect 13 0 9 0;
#X connect 15 0 8 0;
#X connect 15 1 17 0;
#X connect 19 0 1 0;
#X connect 20 0 6 0;
