#N canvas 388 29 800 756 10;
#X declare -lib pdstring;
#X obj 125 33 inlet;
#X obj 180 589 outlet;
#X text 49 23 split messages from engine into several sub-messages
;
#X obj 602 111 sprint 4dsp;
#X obj 545 93 t a a;
#X obj 519 118 r 4dsp-debug;
#X obj 508 138 spigot;
#X obj 510 154 print 4DSP;
#X obj 125 551 list2lists;
#X obj 180 269 listfind;
#X obj 180 305 route 0;
#X obj 180 354 repack 1;
#X obj 180 460 -;
#X obj 210 459 list length;
#X obj 180 495 repack;
#X obj 211 477 + 1;
#X obj 162 373 list length;
#X obj 180 436 t f f;
#X obj 180 477 t f f;
#X obj 125 179 t l l;
#X obj 290 360 list length;
#X msg 231 433 0;
#X obj 180 322 t l b l;
#X obj 265 233 t l l;
#X obj 180 516 t l l;
#X obj 125 73 t a a;
#X obj 180 250 list prepend 10;
#X obj 180 288 t l l;
#X obj 180 403 + 1;
#X obj 125 571 route bang;
#X msg 265 214 10;
#X obj 162 225 t l b l b;
#X connect 0 0 25 0;
#X connect 4 0 6 0;
#X connect 4 1 3 0;
#X connect 5 0 6 1;
#X connect 6 0 7 0;
#X connect 8 0 29 0;
#X connect 9 0 27 0;
#X connect 10 0 22 0;
#X connect 10 1 22 0;
#X connect 11 0 28 0;
#X connect 12 0 18 0;
#X connect 13 0 15 0;
#X connect 14 0 24 0;
#X connect 15 0 14 1;
#X connect 16 0 12 0;
#X connect 17 0 12 1;
#X connect 17 1 12 0;
#X connect 18 0 14 0;
#X connect 19 0 8 0;
#X connect 19 1 31 0;
#X connect 20 0 28 1;
#X connect 21 0 12 1;
#X connect 22 0 11 0;
#X connect 22 1 21 0;
#X connect 22 2 13 0;
#X connect 23 0 26 1;
#X connect 23 1 20 0;
#X connect 24 0 8 1;
#X connect 25 0 19 0;
#X connect 26 0 9 0;
#X connect 27 0 10 0;
#X connect 28 0 17 0;
#X connect 29 1 1 0;
#X connect 30 0 23 0;
#X connect 31 0 16 0;
#X connect 31 1 26 0;
#X connect 31 2 9 1;
#X connect 31 3 30 0;
