#N canvas 0 0 450 300 10;
#X obj 71 39 inlet string0;
#X obj 71 239 outlet string_CRLF;
#X obj 71 70 t l l;
#X obj 101 93 list length;
#X obj 71 153 list split;
#X obj 101 115 - 1;
#X obj 71 181 list append 13 10;
#X connect 0 0 2 0;
#X connect 2 0 4 0;
#X connect 2 1 3 0;
#X connect 3 0 5 0;
#X connect 4 0 6 0;
#X connect 5 0 4 1;
#X connect 6 0 1 0;
