#N canvas 1362 162 598 460 10;
#X obj 75 117 delay 2000;
#X obj 75 284 s \$2-bg;
#X obj 75 194 change;
#X obj 75 217 t f b;
#X obj 75 261 pack 0 s;
#X obj 128 239 symbol \$1;
#X msg 75 145 0;
#X obj 75 172 t f f;
#X msg 150 18 bang;
#X obj 328 64 r \$1-ping;
#X obj 328 87 symbol;
#X obj 328 107 t b s;
#X obj 328 132 s;
#X obj 75 25 r \$1-pong;
#X obj 75 90 t b f;
#X obj 74 49 route bang;
#X msg 73 71 1;
#X connect 0 0 6 0;
#X connect 2 0 3 0;
#X connect 3 0 4 0;
#X connect 3 1 5 0;
#X connect 4 0 1 0;
#X connect 5 0 4 1;
#X connect 6 0 7 0;
#X connect 7 0 2 0;
#X connect 8 0 14 0;
#X connect 9 0 10 0;
#X connect 10 0 11 0;
#X connect 11 0 12 0;
#X connect 11 1 12 1;
#X connect 13 0 15 0;
#X connect 14 0 0 0;
#X connect 14 1 7 0;
#X connect 15 0 16 0;
#X connect 15 1 14 0;
#X connect 16 0 14 0;
