#N canvas 0 0 718 538 10;
#X obj 64 108 t b;
#X obj 207 487 outlet 2dsp;
#X obj 225 508 outlet 2gui;
#X obj 207 156 matchbox;
#X msg 258 135 list \$1;
#X obj 258 114 symbol;
#X msg 207 135 dump;
#X obj 233 91 t b a;
#X msg 207 404 \$1 map 0 \, \$1 map 1;
#X obj 207 298 t a a a;
#X msg 225 355 pdtk_canvas_new \$1 450 300 +0+0 0;
#X obj 207 214 t a a;
#X obj 248 214 print allwindows;
#X obj 262 299 print curwindows;
#X msg 422 210 deleted window \$1;
#X obj 422 247 s PROXY_guipost;
#X msg 408 181 created window \$1;
#X obj 225 68 inlet addwindow;
#X obj 64 69 inlet dumpwindow;
#X msg 330 253 delete \$1;
#X obj 415 69 inlet delwindow;
#X text 291 340 create the window (on gui);
#X text 343 408 redraw the window (by dsp);
#X obj 207 323 pipe s 1000;
#X obj 455 111 t a a;
#X obj 455 90 symbol;
#X obj 207 177 route deleted;
#X obj 225 375 any2string_CRLF;
#X obj 207 458 any2string_SEMICRLF;
#X connect 0 0 6 0;
#X connect 3 0 26 0;
#X connect 4 0 3 1;
#X connect 4 0 16 0;
#X connect 5 0 4 0;
#X connect 6 0 3 0;
#X connect 7 1 5 0;
#X connect 8 0 28 0;
#X connect 9 0 23 0;
#X connect 9 1 10 0;
#X connect 9 2 13 0;
#X connect 10 0 27 0;
#X connect 11 0 9 0;
#X connect 11 1 12 0;
#X connect 14 0 15 0;
#X connect 16 0 15 0;
#X connect 17 0 7 0;
#X connect 18 0 0 0;
#X connect 19 0 3 0;
#X connect 20 0 25 0;
#X connect 23 0 8 0;
#X connect 24 0 19 0;
#X connect 24 1 14 0;
#X connect 25 0 24 0;
#X connect 26 1 11 0;
#X connect 27 0 2 0;
#X connect 28 0 1 0;
