#N canvas 171 163 450 300 10;
#X obj 182 125 metro 150;
#X obj 182 153 i;
#X obj 212 152 + 1;
#X obj 246 152 % 120;
#X obj 182 179 s beat;
#X obj 182 94 tgl 15 0 empty empty empty 17 7 0 10 -262144 -1 -1 0
1;
#X text 177 33 or choose other values \, ...;
#X connect 0 0 1 0;
#X connect 1 0 2 0;
#X connect 1 0 4 0;
#X connect 2 0 3 0;
#X connect 3 0 1 1;
#X connect 5 0 0 0;
